<?xml version="1.0" encoding="utf-8"?>
<!-- Generator: Adobe Illustrator 21.1.0, SVG Export Plug-In . SVG Version: 6.00 Build 0)  -->
<svg version="1.1" id="Layer_1" xmlns="http://www.w3.org/2000/svg" xmlns:xlink="http://www.w3.org/1999/xlink" x="0px" y="0px"
	 viewBox="0 0 168 250" style="enable-background:new 0 0 168 250;" xml:space="preserve">
<style type="text/css">
	.st0{fill:#F12745;}
	.st1{fill:#FFFFFF;}
	.st2{opacity:0.1;}
</style>
<g>
	<path class="st0" d="M110.8,176.2V187c0,0.9-0.4,1.7-1,2.3l0,0c-0.6,0.6-1.4,0.9-2.3,0.9H76.5c-1.8,0-3.3-1.4-3.3-3.2v-10.7
		c0-0.5,0.4-0.9,0.9-0.9h4.3c0.5,0,0.9,0.4,0.9,0.9v7.5h25.4v-7.5c0-0.5,0.4-0.9,0.9-0.9h4.3C110.4,175.3,110.8,175.7,110.8,176.2z"
		/>
	<path class="st0" d="M84.6,165h3.6v-12.3c0-0.5,0.4-0.9,0.9-0.9h5.8c0.5,0,0.9,0.4,0.9,0.9V165h3.6l0,0c0.8,0,1.2,0.9,0.7,1.5
		l-7.5,8.8c-0.4,0.3-0.9,0.3-1.2-0.1l-7.4-8.7C83.3,165.9,83.8,165,84.6,165z"/>
</g>
<g>
	<path class="st1" d="M110.8,62.2V73c0,0.9-0.4,1.7-1,2.3l0,0c-0.6,0.6-1.4,0.9-2.3,0.9H76.5c-1.8,0-3.3-1.4-3.3-3.2V62.2
		c0-0.5,0.4-0.9,0.9-0.9h4.3c0.5,0,0.9,0.4,0.9,0.9v7.5h25.4v-7.5c0-0.5,0.4-0.9,0.9-0.9h4.3C110.4,61.3,110.8,61.7,110.8,62.2z"/>
	<path class="st1" d="M84.6,51h3.6V38.7c0-0.5,0.4-0.9,0.9-0.9h5.8c0.5,0,0.9,0.4,0.9,0.9V51h3.6l0,0c0.8,0,1.2,0.9,0.7,1.5
		l-7.5,8.8c-0.4,0.3-0.9,0.3-1.2-0.1L84,52.5C83.3,51.9,83.8,51,84.6,51z"/>
</g>
<rect class="st2" width="2" height="258"/>
</svg>
