<?xml version="1.0" encoding="utf-8"?>
<!-- Generator: Adobe Illustrator 21.1.0, SVG Export Plug-In . SVG Version: 6.00 Build 0)  -->
<svg version="1.1" id="Layer_1" xmlns="http://www.w3.org/2000/svg" xmlns:xlink="http://www.w3.org/1999/xlink" x="0px" y="0px"
	 viewBox="0 0 100 120" style="enable-background:new 0 0 100 120;" xml:space="preserve">
<style type="text/css">
	.st0{fill:none;}
	.st1{fill:#89888B;}
	.st2{fill:#89888B;stroke:url(#SVGID_1_);stroke-miterlimit:10;}
	.st3{fill:#89888B;stroke:url(#SVGID_2_);stroke-miterlimit:10;}
</style>
<pattern  y="120" width="26.5" height="45" patternUnits="userSpaceOnUse" id="New_Pattern_Swatch_1" viewBox="0 -45 26.5 45" style="overflow:visible;">
	<g>
		<rect y="-45" class="st0" width="26.5" height="45"/>
		<g>
			<rect y="-45" class="st0" width="26.5" height="45"/>
			<rect y="-45" class="st1" width="26.5" height="45"/>
		</g>
	</g>
</pattern>
<g>
	<pattern  id="SVGID_1_" xlink:href="#New_Pattern_Swatch_1" patternTransform="matrix(1 0 0 -1 20 -16639)">
	</pattern>
	<polygon class="st2" points="45.5,37.3 48.5,37.3 48.5,30.6 52.4,26.7 50.3,24.6 47,28 43.7,24.6 41.6,26.7 45.5,30.6 	"/>
	<pattern  id="SVGID_2_" xlink:href="#New_Pattern_Swatch_1" patternTransform="matrix(1 0 0 -1 20 -16639)">
	</pattern>
	<path class="st3" d="M74,50.5c-6.9,0-12.9,4.2-15.4,10.2h-5.1l-5-5V49h2.9c0.8,0,1.5-0.7,1.5-1.5v-5.6c5.3-2.3,8.8-7.5,8.8-13.4
		C61.6,20.5,55,14,47,14s-14.6,6.5-14.6,14.6c0,5.8,3.5,11,8.8,13.4v5.6c0,0.8,0.7,1.5,1.5,1.5h2.9v6.7l-5,5h-5.1
		c-2.6-6-8.5-10.2-15.4-10.2c-9.2,0-16.8,7.5-16.8,16.8V100c0,0.8,0.7,1.5,1.5,1.5h17.5c0.8,0,1.5-0.7,1.5-1.5v-7.3h11.7
		c0.8,0,1.5-0.7,1.5-1.5V84h4.4c0.5,0,1-0.3,1.2-0.7c0.3-0.4,0.3-1,0.1-1.4L37,70.5v-3.3c0-1.3-0.1-2.5-0.4-3.6h4.8
		c0.4,0,0.8-0.2,1-0.4l4.8-4.8l4.8,4.8c0.3,0.3,0.6,0.4,1,0.4h4.8c-0.3,1.2-0.4,2.4-0.4,3.6v3.3l-5.7,11.4c-0.2,0.5-0.2,1,0.1,1.4
		S52.5,84,53,84h4.4v7.3c0,0.8,0.7,1.5,1.5,1.5h11.7v7.3c0,0.8,0.7,1.5,1.5,1.5h11.7c4,0,7.3-3.3,7.3-7.3v-27
		C90.7,58,83.2,50.5,74,50.5z M43.1,39.6c-4.7-1.6-7.8-6.1-7.8-11c0-6.4,5.2-11.7,11.7-11.7s11.7,5.2,11.7,11.7
		c0,4.9-3.1,9.3-7.8,11c-0.6,0.2-1,0.8-1,1.4v5.1h-5.8V41C44.1,40.3,43.7,39.8,43.1,39.6z M33.9,67.2v3.6c0,0.2,0.1,0.5,0.2,0.7
		l4.8,9.6h-3.5c-0.8,0-1.5,0.7-1.5,1.5v7.3H22.2c-0.8,0-1.5,0.7-1.5,1.5v7.3H6.2V67.2c0-7.6,6.2-13.9,13.9-13.9
		c5.3,0,9.9,3,12.2,7.3h-4.4c-0.6-1.7-2.2-2.9-4.1-2.9c-2.4,0-4.4,2-4.4,4.4c0,2.4,2,4.4,4.4,4.4c1.9,0,3.5-1.2,4.1-2.9h5.6
		C33.7,64.7,33.9,66,33.9,67.2z M25.1,62.1c0,0.8-0.7,1.5-1.5,1.5s-1.5-0.7-1.5-1.5s0.7-1.5,1.5-1.5C24.5,60.7,25.1,61.3,25.1,62.1z
		 M87.8,94.2c0,2.4-2,4.4-4.4,4.4H73.2v-7.3c0-0.8-0.7-1.5-1.5-1.5H60.1v-7.3c0-0.8-0.7-1.5-1.5-1.5h-3.5l4.8-9.6
		c0.1-0.2,0.2-0.4,0.2-0.7v-3.6c0-1.3,0.2-2.5,0.5-3.6h5.6c0.6,1.7,2.2,2.9,4.1,2.9c2.4,0,4.4-2,4.4-4.4c0-2.4-2-4.4-4.4-4.4
		c-1.9,0-3.5,1.2-4.1,2.9h-4.4c2.3-4.3,6.9-7.3,12.2-7.3c7.6,0,13.9,6.2,13.9,13.9L87.8,94.2L87.8,94.2z M68.9,62.1
		c0-0.8,0.7-1.5,1.5-1.5s1.5,0.7,1.5,1.5s-0.7,1.5-1.5,1.5C69.5,63.6,68.9,62.9,68.9,62.1z"/>
</g>
</svg>
