<?xml version="1.0" encoding="utf-8"?>
<!-- Generator: Adobe Illustrator 21.1.0, SVG Export Plug-In . SVG Version: 6.00 Build 0)  -->
<svg version="1.1" id="Layer_1" xmlns="http://www.w3.org/2000/svg" xmlns:xlink="http://www.w3.org/1999/xlink" x="0px" y="0px"
	 viewBox="0 0 83.3 120" style="enable-background:new 0 0 83.3 120;" xml:space="preserve">
<style type="text/css">
	.st0{fill:none;}
	.st1{fill:#89888B;}
	.st2{fill:#89888B;stroke:url(#New_Pattern_Swatch_1);stroke-width:0.4;stroke-miterlimit:10;}
</style>
<pattern  x="3.2" y="120" width="26.5" height="45" patternUnits="userSpaceOnUse" id="New_Pattern_Swatch_1" viewBox="0 -45 26.5 45" style="overflow:visible;">
	<g>
		<rect y="-45" class="st0" width="26.5" height="45"/>
		<rect y="-45" class="st1" width="26.5" height="45"/>
	</g>
</pattern>
<g>
	<path class="st2" d="M78,24.5c-0.7-0.6-1.8-0.5-2.4,0.3l-22.3,28L39.1,41.7L42,38h-4.4l-1.4,1.8c-1.9-0.6-4,0-5.3,1.6
		c-0.8,1-1.2,2.3-1,3.6c0.1,0.6,0.3,1.2,0.6,1.7l-4.3,5.4l-13.1,0c-0.9,0-1.6,0.6-1.8,1.4c-0.2,1.1,0.7,2,1.7,2l19.1,0
		c0.9,0,1.6-0.6,1.8-1.4c0.2-1.1-0.7-2-1.7-2h-1.7l2.3-3l14.7,11.5L42,67.8c-1.9,2.5-7,1.9-11-1.2c-2.1-1.6-3.6-3.7-4.3-5.8
		c-0.2-0.6-0.3-1.2-0.3-1.7h-5.7l-4.3,5.5l-7.2,9.2C8.4,75,8,76.5,8.2,78c0.2,1.2,0.8,2.2,1.7,3l0.3,0.3L35,100.7l-24.6-0.1
		c-1,0-1.8,0.8-1.8,1.8l0,0c0,1,0.8,1.8,1.8,1.8h59.1c3,0,5.4-2.4,5.4-5.4v-2.6c0-3-2.1-5.6-5-6.2l-12.8-4.6L45.5,68.9l5.1-6.5
		c0.3,0.1,0.7,0.2,1,0.2c1.5,0,2.9-0.6,3.9-1.9c1.3-1.7,1.3-3.9,0.3-5.6l22.5-28.3C78.9,26.1,78.7,25.1,78,24.5z M71.4,98.8
		c0,1.1-0.9,2-2,2H51.3c-3.1-0.1-6.7-0.1-10.7-0.1l-28.3-22c-0.4-0.3-0.7-0.8-0.7-1.3c-0.1-0.5,0.1-1,0.4-1.5l6-7.7
		c1,1.2,1.7,2.6,2,4.2c0.5,2.2,0.1,4.2-1.1,5.6c-0.3,0.4-0.4,0.8-0.4,1.3c0.1,0.5,0.3,0.9,0.7,1.1l22.2,17.1c0.3,0.2,0.7,0.4,1,0.4
		h14.2c0.4,0,0.9-0.2,1.2-0.5c4.5-4.2,7.6-4.4,10.7-4.2c0.2,0,0.4,0.1,0.5,0.1l0.6,0.2c0.9,0.5,1.5,1.5,1.5,2.6
		C71.4,96.2,71.4,98.8,71.4,98.8z M61.9,90.8c-1.8,0.7-3.7,1.8-5.8,3.7H43.2L22.6,78.7c1-2,1.3-4.4,0.8-7c-0.5-2.4-1.7-4.5-3.2-6.2
		l3.3-4.2c0.1,0.2,0.1,0.4,0.1,0.6c0.9,2.7,2.8,5.4,5.4,7.4c3,2.3,6.3,3.5,9.3,3.5c1.8,0,3.5-0.5,4.8-1.4l1.7,2.4l-7.7,4.9
		c-0.8,0.5-1,1.6-0.5,2.4c0.3,0.5,0.9,0.8,1.4,0.8c0.3,0,0.6-0.1,0.9-0.3l7.8-5l1.4,2L42,82.6c-0.8,0.5-1,1.6-0.5,2.4
		c0.3,0.5,0.9,0.8,1.5,0.8c0.3,0,0.6-0.1,0.9-0.3l6.3-4l1.4,1.9l-4.6,3c-0.8,0.5-1,1.6-0.5,2.4c0.3,0.5,0.9,0.8,1.4,0.8
		c0.3,0,0.6-0.1,0.9-0.3l4.8-3.1l1.1,1.6c0.2,0.3,0.5,0.5,0.8,0.6L61.9,90.8z M52.8,58.6c-0.5,0.6-1.4,0.8-2.1,0.3L33.8,45.6
		c-0.3-0.2-0.5-0.6-0.6-1c0-0.4,0.1-0.8,0.3-1.1c0.5-0.6,1.4-0.8,2.1-0.3c0,0,0,0,0,0c0,0,0,0,0,0l16.9,13.2l0,0l0,0l0,0
		C53.2,57,53.3,57.9,52.8,58.6z"/>
	<path class="st2" d="M16.8,34.6h3.4c0.9,0,1.7-0.8,1.7-1.7c0-0.9-0.8-1.7-1.7-1.7h-3.4c-0.9,0-1.7,0.8-1.7,1.7
		C15.1,33.8,15.8,34.6,16.8,34.6z"/>
	<path class="st2" d="M26.4,34.6H48c0.9,0,1.7-0.8,1.7-1.7c0-0.9-0.8-1.7-1.7-1.7h-0.6l3.4-4.3c0.6-0.7,0.5-1.8-0.3-2.4
		c-0.7-0.6-1.8-0.5-2.4,0.3l-5,6.4H26.4c-0.9,0-1.7,0.8-1.7,1.7C24.7,33.8,25.4,34.6,26.4,34.6z"/>
	<path class="st2" d="M4.4,55.6h2.5c0.9,0,1.7-0.8,1.7-1.7c0-0.9-0.8-1.7-1.7-1.7H4.4c-0.9,0-1.7,0.8-1.7,1.7
		C2.7,54.9,3.5,55.6,4.4,55.6z"/>
</g>
</svg>
