<?xml version="1.0" encoding="utf-8"?>
<!-- Generator: Adobe Illustrator 21.1.0, SVG Export Plug-In . SVG Version: 6.00 Build 0)  -->
<svg version="1.1" id="Layer_1" xmlns="http://www.w3.org/2000/svg" xmlns:xlink="http://www.w3.org/1999/xlink" x="0px" y="0px"
	 viewBox="0 0 100 120" style="enable-background:new 0 0 100 120;" xml:space="preserve">
<style type="text/css">
	.st0{fill:none;}
	.st1{fill:#89888B;}
	.st2{fill:#89888B;stroke:url(#New_Pattern_Swatch_1);stroke-width:0.15;stroke-miterlimit:10;}
</style>
<pattern  x="11" y="120" width="26.5" height="45" patternUnits="userSpaceOnUse" id="New_Pattern_Swatch_1" viewBox="0 -45 26.5 45" style="overflow:visible;">
	<g>
		<rect y="-45" class="st0" width="26.5" height="45"/>
		<rect y="-45" class="st1" width="26.5" height="45"/>
	</g>
</pattern>
<g>
	<g>
		<path class="st2" d="M97.9,80.2h-6.3v-48c0-1.1-0.9-2-2-2H10.4c-1.1,0-2,0.9-2,2v48H2.1c-1.1,0-2.1,0.9-2.1,2.1v2.1
			c0,0.1,0,0.2,0,0.3c0.5,3.5,3.3,7.4,7.2,7.9c0.1,0,0.2,0,0.3,0l84.5,0.1h0c4.4,0,7.6-4.2,8-8.1c0-0.1,0-0.2,0-0.2v-2.1
			C100,81.1,99.1,80.2,97.9,80.2z M12.4,34.2h75.2v45.9H60c-0.1,0-0.3,0-0.4,0H41.2c-0.1,0-0.3,0-0.4,0H12.4V34.2z M91.9,88.5
			L7.6,88.4c-1.5-0.3-3-2.2-3.4-4.1h35.1c0.7,1.2,2,2.1,3.5,2.1H58c1.5,0,2.8-0.8,3.5-2.1h34.4C95.5,86.3,93.9,88.5,91.9,88.5z
			 M38.8,48.9c-0.8-0.8-2.1-0.8-2.9,0l-8.7,8.7c-0.8,0.8-0.8,2.1,0,2.9l8.7,8.7c0.4,0.4,0.9,0.6,1.5,0.6s1.1-0.2,1.5-0.6
			c0.8-0.8,0.8-2.1,0-2.9L31.6,59l7.2-7.2C39.7,51,39.7,49.7,38.8,48.9z M59.4,69.2c0.4,0.4,0.9,0.6,1.5,0.6c0.5,0,1.1-0.2,1.5-0.6
			l8.7-8.7c0.8-0.8,0.8-2.1,0-2.9l-8.7-8.7c-0.8-0.8-2.1-0.8-2.9,0c-0.8,0.8-0.8,2.1,0,2.9l7.2,7.2l-7.2,7.2
			C58.5,67.1,58.5,68.4,59.4,69.2z M41.8,73.7c0.3,0.1,0.6,0.2,0.9,0.2c0.8,0,1.5-0.4,1.9-1.2l12.5-25c0.5-1,0.1-2.3-0.9-2.8
			c-1-0.5-2.3-0.1-2.8,0.9l-12.5,25C40.3,71.9,40.8,73.1,41.8,73.7z"/>
	</g>
</g>
</svg>
