<?xml version="1.0" encoding="utf-8"?>
<!-- Generator: Adobe Illustrator 21.1.0, SVG Export Plug-In . SVG Version: 6.00 Build 0)  -->
<svg version="1.1" id="Layer_1" xmlns="http://www.w3.org/2000/svg" xmlns:xlink="http://www.w3.org/1999/xlink" x="0px" y="0px"
	 viewBox="0 0 100 120" style="enable-background:new 0 0 100 120;" xml:space="preserve">
<style type="text/css">
	.st0{fill:none;}
	.st1{fill:#89888B;}
	.st2{fill:#89888B;stroke:url(#SVGID_2_);stroke-width:0.55;stroke-miterlimit:10;}
</style>
<pattern  y="120" width="26.5" height="45" patternUnits="userSpaceOnUse" id="SVGID_1_" viewBox="0 -45 26.5 45" style="overflow:visible;">
	<g>
		<rect y="-45" class="st0" width="26.5" height="45"/>
		<g>
			<rect y="-45" class="st0" width="26.5" height="45"/>
			<g>
				<rect y="-45" class="st0" width="26.5" height="45"/>
				<rect y="-45" class="st1" width="26.5" height="45"/>
			</g>
		</g>
	</g>
</pattern>
<g transform="translate(0,-1020.3622)">
	<pattern  id="SVGID_2_" xlink:href="#SVGID_1_" patternTransform="matrix(1 0 0 1 29 17614.3613)">
	</pattern>
	<path class="st2" d="M31.4,1039.2c-8.3,0-15.1,6.7-15.1,15c0,9,5.8,16.4,11.8,21.4c3,2.5,6.1,4.5,8.8,5.8c1.3,0.7,2.5,1.2,3.5,1.6
		s1.8,0.6,2.6,0.6c1.1,0,2-0.3,3.4-0.9c1.3-0.5,2.9-1.3,4.7-2.3c2-1,0.3-3.9-1.6-2.7c-1.6,0.9-3.1,1.7-4.3,2.1
		c-1.2,0.5-2.2,0.7-2.2,0.7s-0.7-0.1-1.6-0.4c-0.8-0.3-1.9-0.8-3.1-1.4c-2.4-1.3-5.4-3.1-8.2-5.5c-5.6-4.7-10.7-11.3-10.7-19
		c0-6.5,5.3-11.8,11.9-11.8c4.3,0,8.2,2.3,10.3,5.9c0.6,1,2.1,1,2.7,0c2.1-3.6,6-5.9,10.3-5.9c6.6,0,11.9,5.3,11.9,11.8
		c0,5.1-2.2,9.8-5.4,13.7c-1.4,1.6,1.1,3.7,2.4,2c3.5-4.3,6.1-9.6,6.1-15.7c0-8.2-6.8-15-15.1-15c-4.7,0-8.8,2.5-11.7,6.1
		C40.3,1041.6,36.2,1039.2,31.4,1039.2L31.4,1039.2z M53.7,1046.4c-2.2,0-2.4,3.2-0.2,3.4c2.5,0.3,3.9,1,4.8,2.1
		c0.9,1,1.4,2.5,1.4,4.5c-0.1,2.4,3.5,2.4,3.5,0c0-2.5-0.6-4.9-2.2-6.8c-1.6-1.8-4-2.9-7.1-3.3C53.8,1046.4,53.7,1046.4,53.7,1046.4
		L53.7,1046.4z M7.8,1061.6L7.8,1061.6L7.8,1061.6c-3,0-5.5,2.5-5.5,5.5v23.1c0,0.3,0.1,0.5,0.2,0.8l9.5,17.3h-0.4
		c-0.9,0-1.6,0.7-1.6,1.6v15.7c0,0.9,0.7,1.6,1.6,1.6H35c0.9,0,1.6-0.7,1.6-1.6v-15.7c0-0.9-0.7-1.6-1.6-1.6h-1v-9.4
		c0-0.3-0.1-0.7-0.3-1l-13-17c-0.8-1-1.7-1.9-2.8-2.5c-1.2-0.6-2.7-0.8-4.1-0.2c-0.2,0.1-0.3,0.2-0.5,0.3v-11.4
		C13.3,1064.1,10.8,1061.6,7.8,1061.6L7.8,1061.6z M78.4,1061.7c-3,0-5.5,2.5-5.5,5.5v11.4c-0.2-0.1-0.3-0.2-0.5-0.2
		c-0.7-0.3-1.4-0.4-2.1-0.3c-0.7,0-1.4,0.2-2,0.5c-1.2,0.6-2.1,1.5-2.8,2.5l-13,17c-0.2,0.3-0.3,0.6-0.3,1v9.4h-1
		c-0.9,0-1.6,0.7-1.6,1.6v15.7c0,0.9,0.7,1.6,1.6,1.6h23.3c0.9,0,1.6-0.7,1.6-1.6v-15.7c0-0.9-0.7-1.6-1.6-1.6h-0.4l2.6-4.6
		c1-1.8-1.7-3.4-2.8-1.5l-3.4,6.2h-5.1l-10.1-0.1v-8.8l12.7-16.5c0.6-0.7,1.2-1.3,1.7-1.6c0.5-0.3,0.9-0.3,1.5-0.1
		c0.6,0.2,1.2,0.8,1.5,1.4s0.3,0.9,0,1.3L62,1098.5c-1.3,1.7,1.3,3.6,2.5,1.9l10.8-14.5c0.6-0.8,0.8-1.6,0.8-2.2
		c0-0.1,0-16.5,0-16.5c0-1.3,1-2.4,2.3-2.4l0,0c1.3,0,2.3,1,2.3,2.4v6.2v11.2v5.2l-3.2,5.7c-1,1.8,1.8,3.4,2.8,1.5l3.4-6.1
		c0.1-0.2,0.2-0.5,0.2-0.8v-5.7v-11.2v-6.2C83.9,1064.2,81.4,1061.7,78.4,1061.7L78.4,1061.7z M7.8,1064.8c1.3,0,2.3,1,2.3,2.4v16.1
		c-0.1,1,0.3,2,0.8,2.6l10.8,14.5c1.2,1.7,3.8-0.2,2.5-1.9L13.4,1084c-0.3-0.3-0.3-0.7,0-1.3c0.3-0.6,0.9-1.2,1.5-1.4
		c0.6-0.2,1-0.2,1.5,0.1c0.5,0.3,1.2,0.8,1.7,1.6l12.7,16.5v8.8l-13,0.1h-2.2l-10.2-18.5v-22.7C5.5,1065.8,6.5,1064.8,7.8,1064.8
		L7.8,1064.8z M57.7,1072.1c-0.4,0-0.7,0.2-1,0.4c-0.6,0.5-1.1,1-1.7,1.4c-1.7,1.3,0.3,3.8,1.9,2.5c0.6-0.5,1.2-1,1.8-1.5
		C59.8,1074,59.2,1072.2,57.7,1072.1C57.8,1072.1,57.7,1072.1,57.7,1072.1L57.7,1072.1z M13.3,1111.5h1.2c0.1,0,0.2,0,0.3,0h5.5
		h13.2v12.5H13.3V1111.5z M52.8,1111.5H66h5.5c0.1,0,0.2,0,0.3,0H73v12.5H52.8V1111.5z M15.6,1113.8v2.6h2.6v-2.6H15.6z
		 M20.8,1113.8v2.6h2.6v-2.6H20.8z M62.9,1113.8v2.6h2.6v-2.6H62.9z M68,1113.8v2.6h2.6v-2.6H68z"/>
</g>
</svg>
