<?xml version="1.0" encoding="utf-8"?>
<!-- Generator: Adobe Illustrator 21.1.0, SVG Export Plug-In . SVG Version: 6.00 Build 0)  -->
<svg version="1.1" id="Layer_1" xmlns="http://www.w3.org/2000/svg" xmlns:xlink="http://www.w3.org/1999/xlink" x="0px" y="0px"
	 viewBox="0 0 100 120" style="enable-background:new 0 0 100 120;" xml:space="preserve">
<style type="text/css">
	.st0{fill:none;}
	.st1{fill:#89888B;}
	.st2{fill:#89888B;stroke:url(#New_Pattern_Swatch_1);stroke-width:0.6;stroke-miterlimit:10;}
</style>
<pattern  x="11" y="120" width="26.5" height="45" patternUnits="userSpaceOnUse" id="New_Pattern_Swatch_1" viewBox="0 -45 26.5 45" style="overflow:visible;">
	<g>
		<rect y="-45" class="st0" width="26.5" height="45"/>
		<rect y="-45" class="st1" width="26.5" height="45"/>
	</g>
</pattern>
<g>
	<path class="st2" d="M1.8,40.5c0.1,19.9,3.8,34.7,11.4,45.4c6.2,8.6,14.1,13.6,21.8,18.5l1.8,1.1l1.8-1.1
		c7.7-4.9,15.6-9.9,21.8-18.5c7.6-10.7,11.3-25.5,11.4-45.4c-12.5-4.5-24.3-10.9-35-19C26.1,29.6,14.3,35.9,1.8,40.5z M68.1,42.9
		c-0.4,17.9-3.9,31.2-10.7,40.8c-5.7,8-13.3,12.9-20.7,17.5c-7.3-4.6-14.9-9.5-20.7-17.5C9.3,74.2,5.7,60.8,5.4,42.9
		C16.5,38.7,27.1,33,36.8,26C46.4,33,57,38.7,68.1,42.9z"/>
	<path class="st2" d="M28.2,69.7l-0.6,15c0,1.2,1,2.2,2.2,2.2c0,0,0,0,0,0c0.5,0,1-0.2,1.4-0.5l5.5-4.7l5.4,4.6
		c0.6,0.6,1.6,0.8,2.4,0.4c0.8-0.4,1.4-1.2,1.3-2.1l-0.6-14.9c7.3-4.7,9.4-14.4,4.7-21.7s-14.4-9.4-21.7-4.7S18.8,57.7,23.5,65
		C24.7,66.9,26.3,68.5,28.2,69.7L28.2,69.7z M42.1,81.6l-3.9-3.4c-0.8-0.7-2.1-0.7-2.9,0l-3.9,3.4l0.4-10.2c3.2,1.1,6.8,1.1,10,0
		L42.1,81.6z M36.8,44.4c6.7,0,12.1,5.4,12.1,12.1c0,6.7-5.4,12.1-12.1,12.1c-6.7,0-12.1-5.4-12.1-12.1c0,0,0,0,0,0
		C24.6,49.8,30.1,44.4,36.8,44.4z"/>
	<polygon class="st2" points="43.7,53.8 41.2,51.3 35.2,57.2 32.3,54.4 29.8,56.9 35.2,62.3 	"/>
</g>
</svg>
