<?xml version="1.0" encoding="utf-8"?>
<!-- Generator: Adobe Illustrator 21.1.0, SVG Export Plug-In . SVG Version: 6.00 Build 0)  -->
<svg version="1.1" id="Layer_1" xmlns="http://www.w3.org/2000/svg" xmlns:xlink="http://www.w3.org/1999/xlink" x="0px" y="0px"
	 viewBox="0 0 90 120" style="enable-background:new 0 0 90 120;" xml:space="preserve">
<style type="text/css">
	.st0{fill:#89888B;}
</style>
<path class="st0" d="M34.9,36.1l-21.6,3.7c-0.1,0-0.2,0-0.3,0c-0.9,0-1.8-0.7-2-1.7c-0.2-1.1,0.5-2.1,1.6-2.3l21.6-3.7
	c1.1-0.2,2.1,0.5,2.3,1.6C36.7,34.9,36,35.9,34.9,36.1z M53.8,33.9l18.9,11.3c0.3,0.2,0.7,0.3,1,0.3c0.7,0,1.3-0.3,1.7-1
	c0.6-0.9,0.3-2.2-0.7-2.7L55.8,30.5c-0.9-0.6-2.2-0.2-2.7,0.7C52.5,32.1,52.8,33.3,53.8,33.9z M90,100c0,1.3-0.5,2.5-1.4,3.3
	c-0.9,0.9-2.1,1.4-3.3,1.4s-2.5-0.5-3.3-1.4l-8.5-8.5c-0.9-0.9-1.4-2.1-1.4-3.3c0-0.6,0.1-1.1,0.3-1.6l-1.6-1.6
	c-2.7,2.2-6,3.7-9.6,4.3v5.2c0,1.1-0.9,2-2,2H19.1c-1.1,0-2-0.9-2-2v-18l-5.9,1c-0.1,0-0.2,0-0.3,0c-0.4,0-0.8-0.1-1.1-0.4
	c-0.4-0.3-0.7-0.8-0.8-1.3L0,28c-0.1-0.5,0-1,0.3-1.5c0.3-0.4,0.8-0.7,1.3-0.8L41,18.9c1.1-0.2,2.1,0.5,2.3,1.6l1.3,7.3l6.9-11.6
	c0.3-0.5,0.7-0.8,1.2-0.9c0.5-0.1,1.1,0,1.5,0.2L88.5,36c0.9,0.6,1.3,1.8,0.7,2.7L75.1,62.4c1.8,3,2.9,6.6,2.9,10.4
	c0,4.8-1.7,9.2-4.5,12.6l1.6,1.6c0.5-0.2,1-0.3,1.6-0.3c1.3,0,2.5,0.5,3.3,1.4l8.5,8.5C89.5,97.5,90,98.7,90,100z M39.7,43.8H59
	c1.1,0,2,0.9,2,2V53c4.5,0.7,8.5,2.8,11.4,6l12.3-20.5L53.9,20L39.7,43.8z M19.1,43.8H35l6.4-10.7l-1.7-10L4.3,29.3l8.2,47.2
	l4.6-0.8v-8.3c-0.7-0.2-1.3-0.8-1.4-1.6c-0.2-1,0.5-2,1.4-2.3V53.4l-1.5,0.3c-0.1,0-0.2,0-0.3,0c-1,0-1.8-0.7-2-1.7
	c-0.2-1.1,0.5-2.1,1.6-2.3l2.2-0.4v-3.5C17.1,44.7,18,43.8,19.1,43.8z M57.1,92.7c-4.7-0.2-8.9-2-12.2-4.9H28.1c-1.1,0-2-0.9-2-2
	s0.9-2,2-2h13.3c-1.9-2.9-3.1-6.3-3.3-10h-10c-1.1,0-2-0.9-2-2s0.9-2,2-2h10.2c0-0.2,0.1-0.5,0.1-0.7s0.1-0.4,0.1-0.5
	c0.7-3.3,2.2-6.3,4.3-8.8H28.1c-1.1,0-2-0.9-2-2s0.9-2,2-2h19.4c1.9-1.2,4-2,6.3-2.5c0.1,0,0.3-0.1,0.4-0.1c0.5-0.1,1-0.2,1.5-0.2
	c0.3,0,0.7-0.1,1-0.1c0.1,0,0.2,0,0.3,0v-5H21.1v47.9H57L57.1,92.7L57.1,92.7z M74,72.8c0-8.8-7.2-16-16-16s-16,7.2-16,16
	s7.2,16,16,16S74,81.6,74,72.8z M86,100c0-0.1,0-0.3-0.2-0.5L77.3,91c-0.2-0.2-0.4-0.2-0.5-0.2s-0.3,0-0.5,0.2s-0.2,0.4-0.2,0.5
	s0,0.3,0.2,0.5l8.5,8.5c0.2,0.2,0.4,0.2,0.5,0.2s0.3,0,0.5-0.2S86,100.1,86,100z M72.5,72.8c0,8-6.5,14.5-14.5,14.5
	s-14.5-6.5-14.5-14.5S50.1,58.3,58,58.3S72.5,64.8,72.5,72.8z M68.5,72.8c0-5.8-4.7-10.5-10.5-10.5S47.6,67,47.6,72.8
	s4.7,10.5,10.5,10.5S68.5,78.6,68.5,72.8z M58,63.8c-1.1,0-2,0.9-2,2s0.9,2,2,2c1.2,0,2.3,0.4,3.1,1.1l0.7,0.7
	c0.7,0.9,1.1,1.9,1.1,3.1c0,1.1,0.9,2,2,2s2-0.9,2-2C67,67.8,63,63.8,58,63.8z"/>
</svg>
