<?xml version="1.0" encoding="utf-8"?>
<!-- Generator: Adobe Illustrator 21.1.0, SVG Export Plug-In . SVG Version: 6.00 Build 0)  -->
<svg version="1.1" id="Layer_1" xmlns="http://www.w3.org/2000/svg" xmlns:xlink="http://www.w3.org/1999/xlink" x="0px" y="0px"
	 viewBox="0 0 78 120" style="enable-background:new 0 0 78 120;" xml:space="preserve">
<style type="text/css">
	.st0{fill:#89888B;}
</style>
<g>
	<path class="st0" d="M73.5,35.1L73.5,35.1c-0.2-0.3-0.3-0.6-0.5-0.9h-0.1l-1-0.7c-2.8-1.8-9.3-1.7-16.5,0.2
		c-8.5,2.3-16.4,6.8-22.7,13c-1.6,1.6-3.2,3.4-4.6,5.3l-0.2,0.2H27c-5.2-0.3-10.5,1.1-14.9,3.9l-7,4.6c-0.8,0.5-1.4,1.3-1.6,2.3
		c-0.2,0.9,0,1.9,0.5,2.7c0.5,0.8,1.3,1.4,2.3,1.6l11.9,2.8L12.7,74c-0.9,0.6-1.1,1.8-0.5,2.7c0.1,0.1,0.1,0.2,0.2,0.3l3.2,3.2h-1.5
		l-0.9,0.2c-1.4,0.8-2.7,1.7-3.9,2.9c-5.3,5.3-6.2,14.1-4.2,17.3c0.1,0.2,0.2,0.4,0.4,0.5l0.2,0.1l0.5,0.4c1.3,0.7,2.9,1.1,4.5,1
		c4.8,0,9.3-1.9,12.8-5.2c1.1-1.1,2-2.4,2.8-3.8c0.2-0.3,0.2-0.5,0.3-0.8l0-1.8l3.3,3.3c0.4,0.4,0.9,0.6,1.4,0.6h0.2
		c0.5-0.1,1-0.4,1.3-0.9l3.9-5.6l2.8,12c0.3,1.4,1.5,2.5,2.9,2.7l0.7,0c1.2,0,2.4-0.6,3-1.7l4.6-7c2.8-4.4,4.2-9.7,3.9-14.9l0-1
		l0.2-0.2c1.9-1.4,3.7-2.9,5.3-4.6C73.2,60.8,76.7,40.9,73.5,35.1z M7.9,63.8l6.4-4.3c3-2,6.5-3.1,10.1-3.3l1-0.1L24.9,57
		c-1.7,2.9-3.1,6-4.3,9.2l-0.2,0.4L7.9,63.8z M22.6,92.2l-0.1,0.1c-0.5,0.9-1.2,1.7-1.9,2.4c-3.1,3.1-7.4,4-10.1,4
		c-0.8,0-1.4-0.1-1.9-0.2c-0.3-0.1-0.8-0.4-1-1.2c-0.6-2.2,1-7.8,4.4-11.2c0.8-0.8,1.7-1.4,2.6-2l0.1-0.1l4.5-0.3l3.7,3.7L22.6,92.2
		z M31,89.9l-14.1-14l4.2-2.9l12.7,12.7L31,89.9z M50.6,82.5c-0.2,3.3-1.2,6.4-2.8,9.2h0l-0.5,0.8L43,98.9l-2.9-12.6l0.4-0.2
		c3.2-1.1,6.3-2.5,9.2-4.2l0.9-0.5L50.6,82.5z M65.7,59.4c-2.2,4.4-5,8.4-8.5,11.9l0,0c-5.6,5.5-12.5,9.6-20,11.8l-0.3,0.1
		L23.6,69.9l0.1-0.3c2.2-7.5,6.3-14.4,11.8-20c3.5-3.5,7.6-6.4,12-8.6l0.1-0.1l0.1,0c10,0.2,17.9,8.3,18,18.3l0,0.1L65.7,59.4z
		 M69.2,50.9l-0.4,1.4L68.2,51c-2.3-5.6-6.6-9.9-12.2-12.2l-1.4-0.6l1.5-0.4c6.3-1.8,11.9-1.9,13.6-1h0.2l0.2,0.3
		C71.3,39.1,70.9,45,69.2,50.9z"/>
	<path class="st0" d="M48.5,49.2C48.5,49.2,48.5,49.2,48.5,49.2L48.5,49.2C48.5,49.2,48.5,49.2,48.5,49.2c-5,0-9.1,4.1-9.1,9.1
		c0,5,4.1,9.1,9.1,9.1c0,0,0,0,0,0c5,0,9.1-4.1,9.1-9.1c0-2.4-0.9-4.7-2.7-6.4C53.2,50.2,50.9,49.2,48.5,49.2z M52.2,62
		c-1,1-2.3,1.5-3.7,1.5c0,0,0,0,0,0c-1.4,0-2.7-0.5-3.6-1.5c-1-1-1.5-2.3-1.5-3.7c0-1.4,0.5-2.7,1.5-3.7c2-2,5.3-2,7.3,0
		C54.2,56.7,54.2,60,52.2,62z"/>
</g>
</svg>
