<?xml version="1.0" encoding="utf-8"?>
<!-- Generator: Adobe Illustrator 21.1.0, SVG Export Plug-In . SVG Version: 6.00 Build 0)  -->
<svg version="1.1" id="Layer_1" xmlns="http://www.w3.org/2000/svg" xmlns:xlink="http://www.w3.org/1999/xlink" x="0px" y="0px"
	 viewBox="0 0 61.5 120" style="enable-background:new 0 0 61.5 120;" xml:space="preserve">
<style type="text/css">
	.st0{fill:none;}
	.st1{fill:#89888B;}
	.st2{fill:#89888B;stroke:url(#SVGID_1_);stroke-width:0.1;stroke-miterlimit:10;}
</style>
<pattern  y="120" width="26.5" height="45" patternUnits="userSpaceOnUse" id="New_Pattern_Swatch_1" viewBox="0 -45 26.5 45" style="overflow:visible;">
	<g>
		<rect y="-45" class="st0" width="26.5" height="45"/>
		<g>
			<rect y="-45" class="st0" width="26.5" height="45"/>
			<rect y="-45" class="st1" width="26.5" height="45"/>
		</g>
	</g>
</pattern>
<g>
	<pattern  id="SVGID_1_" xlink:href="#New_Pattern_Swatch_1" patternTransform="matrix(1 0 0 -1 4.7 -16639)">
	</pattern>
	<path class="st2" d="M58.4,26.4H46.9c-1.1,0-1.9,0.9-1.9,1.9v4H16.4v-4c0-1.1-0.9-1.9-1.9-1.9H3.2c-1.1,0-1.9,0.9-1.9,1.9V40
		c0,1.1,0.9,1.9,1.9,1.9h11.4c1.1,0,1.9-0.9,1.9-1.9v-4h12.6C28.9,40.8,17.3,63,10,76.1c-0.4,0.8-0.2,1.7,0.4,2.4
		C17,84,18.6,89.5,19,92.3h-2.5c-1.1,0-1.9,0.9-1.9,1.9v9.4c0,1.1,0.9,1.9,1.9,1.9h28.6c1.1,0,1.9-0.9,1.9-1.9v-9.4
		c0-1.1-0.9-1.9-1.9-1.9h-2.6c0.4-2.8,2-8.3,8.6-13.8c0.6-0.5,0.9-1.6,0.4-2.4c-7.3-13.1-18.8-35.4-19-40H45v4
		c0,1.1,0.9,1.9,1.9,1.9h11.4c1.1,0,1.9-0.9,1.9-1.9V28.3C60.2,27.3,59.5,26.4,58.4,26.4z M12.7,38.1H5v-7.9h7.6V38.1z M30.8,69.5
		c1.4,0,2.5,1.1,2.5,2.5c0,1.4-1.1,2.5-2.5,2.5s-2.5-1.1-2.5-2.5C28.3,70.7,29.4,69.5,30.8,69.5z M43.1,101.6H18.4V96h2.6h19.6h2.6
		C43.1,96,43.1,101.6,43.1,101.6z M38.7,92.2H22.6c-0.4-3.1-2-9.3-8.8-15.7c2.6-4.7,10.3-18.9,14.9-29.4v19
		c-2.5,0.8-4.3,3.1-4.3,5.9c0,3.4,2.8,6.2,6.2,6.2c3.4,0,6.2-2.8,6.2-6.2c0-2.8-1.8-5-4.3-5.9V47C37.4,57.5,45,71.7,47.5,76.5
		C40.9,82.9,39.3,89.1,38.7,92.2z M56.6,38.1h-7.6v-3.5c0-0.1,0-0.2,0-0.3c0-0.1,0-0.2,0-0.3v-3.6h7.6V38.1z"/>
</g>
</svg>
