<?xml version="1.0" encoding="utf-8"?>
<!-- Generator: Adobe Illustrator 21.1.0, SVG Export Plug-In . SVG Version: 6.00 Build 0)  -->
<svg version="1.1" id="Layer_1" xmlns="http://www.w3.org/2000/svg" xmlns:xlink="http://www.w3.org/1999/xlink" x="0px" y="0px"
	 viewBox="0 0 100 120" style="enable-background:new 0 0 100 120;" xml:space="preserve">
<style type="text/css">
	.st0{fill:none;}
	.st1{fill:#89888B;}
	.st2{fill:#89888B;stroke:url(#SVGID_1_);stroke-width:0.5;stroke-miterlimit:10;}
	.st3{fill:#89888B;stroke:url(#SVGID_2_);stroke-width:0.5;stroke-miterlimit:10;}
	.st4{fill:#89888B;stroke:url(#SVGID_3_);stroke-width:0.5;stroke-miterlimit:10;}
	.st5{fill:#89888B;stroke:url(#SVGID_4_);stroke-width:0.5;stroke-miterlimit:10;}
	.st6{fill:#89888B;stroke:url(#SVGID_5_);stroke-width:0.5;stroke-miterlimit:10;}
	.st7{fill:#89888B;stroke:url(#SVGID_6_);stroke-width:0.5;stroke-miterlimit:10;}
	.st8{fill:#89888B;stroke:url(#SVGID_7_);stroke-width:0.5;stroke-miterlimit:10;}
	.st9{fill:#89888B;stroke:url(#SVGID_8_);stroke-width:0.5;stroke-miterlimit:10;}
	.st10{fill:#89888B;stroke:url(#SVGID_9_);stroke-width:0.5;stroke-miterlimit:10;}
	.st11{fill:#89888B;stroke:url(#SVGID_10_);stroke-width:0.5;stroke-miterlimit:10;}
	.st12{fill:#89888B;stroke:url(#SVGID_11_);stroke-width:0.5;stroke-miterlimit:10;}
</style>
<pattern  y="120" width="26.5" height="45" patternUnits="userSpaceOnUse" id="New_Pattern_Swatch_1" viewBox="0 -45 26.5 45" style="overflow:visible;">
	<g>
		<rect y="-45" class="st0" width="26.5" height="45"/>
		<g>
			<rect y="-45" class="st0" width="26.5" height="45"/>
			<rect y="-45" class="st1" width="26.5" height="45"/>
		</g>
	</g>
</pattern>
<g>
	<pattern  id="SVGID_1_" xlink:href="#New_Pattern_Swatch_1" patternTransform="matrix(1 0 0 -1 20 -16639)">
	</pattern>
	<path class="st2" d="M2.4,24.2v39.4v3.6v39.4h72V67.2v-3.6V24.2H2.4z M70.9,103.1H5.8V67.2h65.1V103.1z M5.8,63.6V27.7h65.1v35.9
		H5.8L5.8,63.6z"/>
	<pattern  id="SVGID_2_" xlink:href="#New_Pattern_Swatch_1" patternTransform="matrix(1 0 0 -1 20 -16639)">
	</pattern>
	<path class="st3" d="M26.7,44.1l-3.6-5.9l-8.8,14.7h7.4H32h13.2L33.5,32.2L26.7,44.1z M20.4,49.4l2.7-4.6l1.6,2.6l-1.1,2H20.4z
		 M27.6,49.4l5.9-10.2l5.9,10.2H27.6z"/>
	<pattern  id="SVGID_3_" xlink:href="#New_Pattern_Swatch_1" patternTransform="matrix(1 0 0 -1 20 -16639)">
	</pattern>
	<path class="st4" d="M43.5,56.3L43.5,56.3L43.5,56.3H16.1c-0.9,0-1.7,0.7-1.7,1.7s0.7,1.7,1.7,1.7h27.4l0,0l0,0
		c0.9,0,1.7-0.7,1.7-1.7C45.3,57,44.4,56.3,43.5,56.3z"/>
	<pattern  id="SVGID_4_" xlink:href="#New_Pattern_Swatch_1" patternTransform="matrix(1 0 0 -1 20 -16639)">
	</pattern>
	<path class="st5" d="M16.1,95.7c-0.9,0-1.7,0.7-1.7,1.7s0.7,1.7,1.7,1.7c0.9,0,1.7-0.7,1.7-1.7S17,95.7,16.1,95.7z"/>
	<pattern  id="SVGID_5_" xlink:href="#New_Pattern_Swatch_1" patternTransform="matrix(1 0 0 -1 20 -16639)">
	</pattern>
	<path class="st6" d="M22.9,95.7c-0.9,0-1.7,0.7-1.7,1.7s0.7,1.7,1.7,1.7s1.7-0.7,1.7-1.7S23.8,95.7,22.9,95.7z"/>
	<pattern  id="SVGID_6_" xlink:href="#New_Pattern_Swatch_1" patternTransform="matrix(1 0 0 -1 20 -16639)">
	</pattern>
	<path class="st7" d="M29.8,95.7c-0.9,0-1.7,0.7-1.7,1.7s0.7,1.7,1.7,1.7s1.7-0.7,1.7-1.7S30.8,95.7,29.8,95.7z"/>
	<pattern  id="SVGID_7_" xlink:href="#New_Pattern_Swatch_1" patternTransform="matrix(1 0 0 -1 20 -16639)">
	</pattern>
	<path class="st8" d="M36.7,95.7c-0.9,0-1.7,0.7-1.7,1.7s0.7,1.7,1.7,1.7s1.7-0.7,1.7-1.7S37.6,95.7,36.7,95.7z"/>
	<pattern  id="SVGID_8_" xlink:href="#New_Pattern_Swatch_1" patternTransform="matrix(1 0 0 -1 20 -16639)">
	</pattern>
	<path class="st9" d="M43.5,95.7c-0.9,0-1.7,0.7-1.7,1.7s0.7,1.7,1.7,1.7c0.9,0,1.7-0.7,1.7-1.7S44.4,95.7,43.5,95.7z"/>
	<pattern  id="SVGID_9_" xlink:href="#New_Pattern_Swatch_1" patternTransform="matrix(1 0 0 -1 20 -16639)">
	</pattern>
	<path class="st10" d="M32,92.3h13.2L33.5,71.7l-6.7,11.8l-3.6-5.9l-8.8,14.7h7.4H32L32,92.3z M39.3,88.8H27.6l5.9-10.2L39.3,88.8z
		 M20.4,88.8l2.7-4.6l1.6,2.6l-1.1,2H20.4L20.4,88.8z"/>
	<pattern  id="SVGID_10_" xlink:href="#New_Pattern_Swatch_1" patternTransform="matrix(1 0 0 -1 20 -16639)">
	</pattern>
	<path class="st11" d="M64.7,41.4c-0.6-0.6-1.8-0.6-2.4,0l0,0l-6.1,6.1l-2.4-2.4l0,0c-0.6-0.6-1.8-0.6-2.4,0c-0.6,0.6-0.6,1.8,0,2.4
		l3.7,3.7c0.6,0.6,1.8,0.6,2.4,0l7.3-7.3C65.4,43.2,65.4,42.2,64.7,41.4z"/>
	<pattern  id="SVGID_11_" xlink:href="#New_Pattern_Swatch_1" patternTransform="matrix(1 0 0 -1 20 -16639)">
	</pattern>
	<path class="st12" d="M55,90.3c0.6,0.6,1.8,0.6,2.4,0l0,0l2.4-2.4l2.4,2.4l0,0c0.6,0.6,1.8,0.6,2.4,0s0.6-1.8,0-2.4l0,0l0,0
		l-2.4-2.4l2.4-2.4l0,0l0,0c0.6-0.6,0.6-1.8,0-2.4c-0.6-0.6-1.8-0.6-2.4,0l0,0l-2.4,2.4l-2.4-2.4l0,0c-0.6-0.6-1.8-0.6-2.4,0
		c-0.6,0.6-0.6,1.8,0,2.4l0,0l0,0l2.4,2.4L55,87.9l0,0l0,0C54.4,88.6,54.4,89.7,55,90.3z"/>
</g>
</svg>
