<?xml version="1.0" encoding="utf-8"?>
<!-- Generator: Adobe Illustrator 21.1.0, SVG Export Plug-In . SVG Version: 6.00 Build 0)  -->
<svg version="1.1" id="Layer_1" xmlns="http://www.w3.org/2000/svg" xmlns:xlink="http://www.w3.org/1999/xlink" x="0px" y="0px"
	 viewBox="0 0 78 120" style="enable-background:new 0 0 78 120;" xml:space="preserve">
<style type="text/css">
	.st0{fill:#89888B;}
</style>
<g>
	<path class="st0" d="M76,19.2H2c-1.1,0-2,0.9-2,2v53c0,1.1,0.9,2,2,2h14.2L7.1,98c-0.5,1,0,2.2,1,2.6c1,0.5,2.2,0,2.6-1v-0.1
		L16,86.7h45.7L67,99.5c0.4,1,1.6,1.5,2.6,1.1s1.5-1.6,1.1-2.6v-0.1l-9.1-21.7H76c1.1,0,2-0.9,2-2v-53C78,20.1,77.1,19.2,76,19.2z
		 M60.2,82.7H17.8l2.7-6.5h36.9L60.2,82.7z M74,72.2H4v-49h70V72.2z"/>
	<path class="st0" d="M16,67.7c3.3,0,6-2.7,6-6c0-2.1-1.1-4-2.9-5.1c0.5-2.3,2.5-3.9,4.9-3.9h5c5,0,9-4,9-9v-4c0-2.8,2.2-5,5-5h12.2
		l-0.1,0.1c-0.8,0.8-0.8,2,0,2.8s2,0.8,2.8,0l3.5-3.5c0.8-0.8,0.8-2,0-2.8l0,0l-3.5-3.5c-0.8-0.8-2.1-0.8-2.8,0
		c-0.8,0.8-0.8,2.1,0,2.8l0,0H43c-5,0-9,4-9,9v4c0,2.8-2.2,5-5,5h-5c-4.2,0-7.9,2.9-8.8,7.1c-3.3,0.5-5.6,3.5-5.1,6.8
		C10.5,65.5,13,67.7,16,67.7z M16,59.7c1.1,0,2,0.9,2,2s-0.9,2-2,2s-2-0.9-2-2S14.9,59.7,16,59.7z"/>
	<path class="st0" d="M15.2,41.7c0.3,0,0.6-0.1,0.9-0.2l2-1l1,2c0.5,1,1.7,1.4,2.7,0.9s1.4-1.7,0.9-2.7l-1-2l2-1
		c1-0.5,1.4-1.7,0.9-2.7s-1.7-1.4-2.7-0.9l-2,1l-1-2c-0.5-1-1.7-1.4-2.7-0.9c-1,0.5-1.4,1.7-0.9,2.7l0,0l1,2l-2,1
		c-1,0.5-1.4,1.7-0.9,2.7C13.8,41.2,14.5,41.7,15.2,41.7z"/>
	<path class="st0" d="M45.6,61l-2.2-0.7l0.7-2.2c0.3-1.1-0.3-2.2-1.4-2.5c-1-0.3-2.1,0.3-2.4,1.3l-0.7,2.2l-2.2-0.7
		c-1.1-0.3-2.2,0.3-2.5,1.4c-0.3,1,0.3,2.1,1.3,2.4l2.2,0.7L37.7,65c-0.3,1.1,0.2,2.2,1.3,2.5s2.2-0.2,2.5-1.3v-0.1l0.7-2.2l2.2,0.7
		c1.1,0.3,2.2-0.3,2.5-1.4C47.2,62.4,46.7,61.4,45.6,61z"/>
	<path class="st0" d="M60.9,47.8c-1,0.4-1.6,1.5-1.2,2.6l0,0l0.8,2.1l-2.1,0.8c-1,0.4-1.6,1.5-1.2,2.6c0.4,1,1.5,1.6,2.6,1.2
		l2.1-0.8l0.8,2.1c0.4,1,1.5,1.6,2.6,1.2c1-0.4,1.6-1.5,1.2-2.6l-0.8-2.1l2.1-0.8c1-0.4,1.6-1.5,1.2-2.6c-0.4-1-1.5-1.6-2.6-1.2l0,0
		l-2.1,0.8L63.5,49C63.1,48,62,47.5,60.9,47.8L60.9,47.8z"/>
	<path class="st0" d="M47,40.7c-3.3,0-6,2.7-6,6s2.7,6,6,6s6-2.7,6-6S50.3,40.7,47,40.7z M47,48.7c-1.1,0-2-0.9-2-2s0.9-2,2-2
		s2,0.9,2,2S48.1,48.7,47,48.7z"/>
	<path class="st0" d="M65.9,34.4c0.1,0.1,0.2,0.1,0.3,0.2c0.1,0.1,0.2,0.1,0.4,0.1c0.1,0,0.3,0,0.4,0c1.1,0,2-0.9,2-2
		c0-0.1,0-0.3,0-0.4c0-0.1-0.1-0.3-0.1-0.4s-0.1-0.2-0.2-0.4c-0.1-0.1-0.2-0.2-0.2-0.3c-0.5-0.5-1.1-0.7-1.8-0.5
		c-0.1,0-0.3,0.1-0.4,0.1c-0.1,0.1-0.2,0.1-0.3,0.2c-0.1,0.1-0.2,0.1-0.3,0.2c-0.1,0.1-0.2,0.2-0.2,0.3c-0.1,0.1-0.1,0.2-0.2,0.4
		c0,0.1-0.1,0.2-0.1,0.4c0,0.1-0.1,0.3-0.1,0.4c0,0.5,0.2,1,0.6,1.4C65.7,34.2,65.8,34.3,65.9,34.4z"/>
</g>
</svg>
