<?xml version="1.0" encoding="utf-8"?>
<!-- Generator: Adobe Illustrator 21.1.0, SVG Export Plug-In . SVG Version: 6.00 Build 0)  -->
<svg version="1.1" id="Layer_1" xmlns="http://www.w3.org/2000/svg" xmlns:xlink="http://www.w3.org/1999/xlink" x="0px" y="0px"
	 viewBox="0 0 83.3 120" style="enable-background:new 0 0 83.3 120;" xml:space="preserve">
<style type="text/css">
	.st0{fill:none;}
	.st1{fill:#89888B;}
	.st2{fill:#89888B;stroke:url(#New_Pattern_Swatch_1);stroke-miterlimit:10;}
</style>
<pattern  x="3.2" y="120" width="26.5" height="45" patternUnits="userSpaceOnUse" id="New_Pattern_Swatch_1" viewBox="0 -45 26.5 45" style="overflow:visible;">
	<g>
		<rect y="-45" class="st0" width="26.5" height="45"/>
		<rect y="-45" class="st1" width="26.5" height="45"/>
	</g>
</pattern>
<g>
	<g>
		<path class="st2" d="M40.8,68.8c-4.6,0-8.3-3.7-8.3-8.3c0-4.6,3.7-8.3,8.3-8.3s8.3,3.7,8.3,8.3C49.1,65,45.4,68.8,40.8,68.8z
			 M40.8,55.4c-2.8,0-5.1,2.3-5.1,5.1s2.3,5.1,5.1,5.1s5.1-2.3,5.1-5.1C45.9,57.6,43.6,55.4,40.8,55.4z"/>
	</g>
	<g>
		<path class="st2" d="M40.8,67.1L40.8,67.1c0.9,0,1.6,0.7,1.6,1.6v25.8c0,0.9-0.7,1.6-1.6,1.6l0,0c-0.9,0-1.6-0.7-1.6-1.6V68.8
			C39.2,67.9,39.9,67.1,40.8,67.1z"/>
	</g>
	<g>
		<path class="st2" d="M47.5,75.6L47.5,75.6c-0.3-0.8,0-1.7,0.7-2.1c4.7-2.6,7.7-7.6,7.7-13.1c0-8.3-6.8-15-15.1-15
			s-15.1,6.7-15.1,15c0,5.5,3,10.4,7.7,13.1c0.7,0.4,1,1.3,0.7,2.1l0,0c-0.4,0.9-1.4,1.2-2.2,0.8c-5.7-3.2-9.4-9.3-9.4-15.9
			c0-10.1,8.2-18.3,18.3-18.3s18.3,8.2,18.3,18.3c0,6.7-3.6,12.7-9.4,15.9C48.9,76.8,47.9,76.5,47.5,75.6z"/>
	</g>
	<g>
		<path class="st2" d="M47.5,85.9L47.5,85.9c-0.2-0.8,0.2-1.7,1-1.9c10.1-3.3,17.1-12.8,17.1-23.5c0-13.7-11.1-24.8-24.8-24.8
			S16,46.8,16,60.4c0,10.8,6.9,20.2,17.1,23.5c0.8,0.3,1.3,1.1,1.1,1.9l0,0c-0.2,0.9-1.2,1.4-2.1,1.1c-11.4-3.7-19.3-14.5-19.3-26.6
			c0-15.4,12.6-28,28.1-28s28.1,12.6,28.1,28c0,12.2-7.8,22.9-19.3,26.6C48.7,87.3,47.7,86.8,47.5,85.9z"/>
	</g>
	<g>
		<path class="st2" d="M47.5,95.5L47.5,95.5c-0.2-0.8,0.4-1.7,1.2-1.9C64,90,75,76.3,75,60.4c0-18.8-15.3-34.1-34.2-34.1
			S6.6,41.6,6.6,60.4c0,15.9,11,29.6,26.3,33.2c0.8,0.2,1.4,1,1.2,1.9l0,0c-0.2,0.9-1.1,1.5-2,1.3c-16.7-4-28.7-19-28.7-36.3
			c0-20.6,16.8-37.3,37.4-37.3s37.4,16.8,37.4,37.3c0,17.3-12,32.4-28.7,36.3C48.6,97,47.7,96.4,47.5,95.5z"/>
	</g>
</g>
</svg>
