<?xml version="1.0" encoding="utf-8"?>
<!-- Generator: Adobe Illustrator 21.1.0, SVG Export Plug-In . SVG Version: 6.00 Build 0)  -->
<svg version="1.1" id="Layer_1" xmlns="http://www.w3.org/2000/svg" xmlns:xlink="http://www.w3.org/1999/xlink" x="0px" y="0px"
	 viewBox="0 0 120 120" style="enable-background:new 0 0 120 120;" xml:space="preserve">
<style type="text/css">
	.st0{fill:#FFFFFF;}
</style>
<path class="st0" d="M96.2,59.7c0,19.6-15.9,35.4-35.4,35.4c-19.6,0-35.4-15.8-35.4-35.4c0-2.3,0.2-4.6,0.7-6.8H2.3V100
	c0,10.1,8.2,18.3,18.3,18.3h80.5c10.1,0,18.3-8.2,18.3-18.3V52.9H95.5C96,55.1,96.2,57.4,96.2,59.7z M101.1,1.2H20.5
	C10.4,1.2,2.3,9.4,2.3,19.5v19.8h29.6c6.4-9.1,17-15,28.9-15c11.9,0,22.5,5.9,28.9,15h29.6V19.5C119.4,9.4,111.2,1.2,101.1,1.2z
	 M110,23.8c0,1.8-1.5,3.3-3.3,3.3h-9.8c-1.8,0-3.3-1.5-3.3-3.3V14c0-1.8,1.5-3.3,3.3-3.3h9.8c1.8,0,3.3,1.5,3.3,3.3V23.8z
	 M82.6,59.7c0-12-9.8-21.8-21.8-21.8c-12,0-21.8,9.8-21.8,21.8s9.8,21.8,21.8,21.8C72.8,81.5,82.6,71.8,82.6,59.7z"/>
</svg>
