<?xml version="1.0" encoding="utf-8"?>
<!-- Generator: Adobe Illustrator 21.1.0, SVG Export Plug-In . SVG Version: 6.00 Build 0)  -->
<svg version="1.1" id="Layer_2" xmlns="http://www.w3.org/2000/svg" xmlns:xlink="http://www.w3.org/1999/xlink" x="0px" y="0px"
	 viewBox="0 0 44 88" style="enable-background:new 0 0 44 88;" xml:space="preserve">
<style type="text/css">
	.st0{fill:#FFFFFF;}
	.st1{fill:#F12745;}
</style>
<g>
	<rect x="38" y="17.2" class="st0" width="6" height="16.4"/>
	<rect x="28.6" y="27.6" class="st0" width="6" height="16.4"/>
	<rect x="38" class="st0" width="6" height="13.2"/>
	<rect x="10.3" class="st0" width="6" height="33.6"/>
	<rect y="9.4" class="st0" width="6" height="34.6"/>
	
		<rect x="34.4" y="-3.6" transform="matrix(-1.836970e-16 1 -1 -1.836970e-16 40.4002 -34.4002)" class="st0" width="6" height="13.2"/>
	<rect x="29.2" y="0.9" transform="matrix(0.7071 0.7071 -0.7071 0.7071 17.7694 -19.33)" class="st0" width="6" height="21.7"/>
	
		<rect x="15.4" y="-5.1" transform="matrix(-1.836970e-16 1 -1 -1.836970e-16 21.4279 -15.4279)" class="st0" width="6" height="16.2"/>
	<rect x="4.2" y="5.2" transform="matrix(-1.836970e-16 1 -1 -1.836970e-16 19.6562 5.2188)" class="st0" width="6" height="14.4"/>
	<rect x="22.9" y="15" transform="matrix(-1.836970e-16 1 -1 -1.836970e-16 56.5 4.6875)" class="st0" width="6" height="31.1"/>
	
		<rect x="16" y="25.4" transform="matrix(-1.836970e-16 1 -1 -1.836970e-16 60.0312 21.9688)" class="st0" width="6" height="31.1"/>
</g>
<g>
	<rect x="38" y="61.2" class="st1" width="6" height="16.4"/>
	<rect x="28.6" y="71.6" class="st1" width="6" height="16.4"/>
	<rect x="38" y="44" class="st1" width="6" height="13.2"/>
	<rect x="10.3" y="44" class="st1" width="6" height="33.6"/>
	<rect y="53.4" class="st1" width="6" height="34.6"/>
	
		<rect x="34.4" y="40.4" transform="matrix(-1.836970e-16 1 -1 -1.836970e-16 84.4002 9.5998)" class="st1" width="6" height="13.2"/>
	<rect x="29.2" y="44.9" transform="matrix(0.7071 0.7071 -0.7071 0.7071 48.8821 -6.4427)" class="st1" width="6" height="21.7"/>
	
		<rect x="15.4" y="38.9" transform="matrix(-1.836970e-16 1 -1 -1.836970e-16 65.4279 28.5721)" class="st1" width="6" height="16.2"/>
	
		<rect x="4.2" y="49.2" transform="matrix(-1.836970e-16 1 -1 -1.836970e-16 63.6562 49.2188)" class="st1" width="6" height="14.4"/>
	<rect x="22.9" y="59" transform="matrix(-1.836970e-16 1 -1 -1.836970e-16 100.5 48.6875)" class="st1" width="6" height="31.1"/>
	
		<rect x="16" y="69.4" transform="matrix(-1.836970e-16 1 -1 -1.836970e-16 104.0312 65.9688)" class="st1" width="6" height="31.1"/>
</g>
</svg>
